<?xml version="1.0" encoding="utf-8"?>
<!-- Generator: Adobe Illustrator 23.0.1, SVG Export Plug-In . SVG Version: 6.00 Build 0)  -->
<svg version="1.1" id="Layer_1" xmlns="http://www.w3.org/2000/svg" xmlns:xlink="http://www.w3.org/1999/xlink" x="0px" y="0px"
	 viewBox="0 0 16 16" style="enable-background:new 0 0 16 16;" xml:space="preserve">
<style type="text/css">
	.st0{fill:#FFFFFF;}
</style>
<path d="M2,2.1h12c0.3,0,0.5,0.2,0.5,0.5v12c0,0.3-0.2,0.5-0.5,0.5H2c-0.3,0-0.5-0.2-0.5-0.5v-12C1.5,2.4,1.7,2.1,2,2.1z"/>
<path d="M14.5,11.8v2.9c0,0.3-0.2,0.5-0.5,0.5h-2.9"/>
<path d="M2,2.1h12c0.3,0,0.5,0.2,0.5,0.5v2.7l0,0h-13l0,0V2.7C1.5,2.4,1.7,2.1,2,2.1z"/>
<path d="M4.7,1.5v1.3c0,0.4-0.3,0.7-0.7,0.7l0,0c-0.4,0-0.7-0.3-0.7-0.7V1.5c0-0.4,0.3-0.7,0.7-0.7l0,0C4.5,0.8,4.7,1.1,4.7,1.5z"/>
<path d="M12.6,1.5v1.3c0,0.4-0.3,0.7-0.7,0.7l0,0c-0.4,0-0.7-0.3-0.7-0.7V1.5c0-0.4,0.3-0.7,0.7-0.7l0,0C12.3,0.9,12.6,1.1,12.6,1.5
	z"/>
<image style="overflow:visible;opacity:0.2;enable-background:new    ;" width="72" height="52" xlink:href="EF0DB145D5537018.png"  transform="matrix(0.1302 0 0 0.1302 3.3198 6.6913)">
</image>
<path class="st0" d="M4.9,11c0,0.2,0,0.4,0.1,0.6C5.1,11.8,5.4,12,5.7,12c0.2,0,0.4-0.1,0.6-0.2c0.2-0.2,0.3-0.4,0.2-0.7
	c0-0.4-0.2-0.6-0.5-0.7c-0.3-0.1-0.5-0.1-0.8-0.1V9.4c0.3,0,0.5,0,0.8-0.1C6.3,9.2,6.4,9,6.4,8.7c0-0.2-0.1-0.4-0.2-0.5
	C6.1,8,5.9,7.9,5.7,7.9C5.5,7.9,5.3,8,5.1,8.2C5,8.4,4.9,8.6,4.9,8.9h-1C3.9,8.6,4,8.3,4,8.1c0.1-0.2,0.2-0.4,0.4-0.6
	C4.6,7.3,4.8,7.2,5,7.1C5.2,7.1,5.5,7,5.7,7c0.5,0,1,0.1,1.3,0.4c0.3,0.3,0.5,0.7,0.5,1.1c0,0.3-0.1,0.6-0.3,0.8
	C7.2,9.6,7,9.7,6.9,9.7C7,9.7,7.1,9.8,7.3,10c0.3,0.3,0.4,0.7,0.4,1.1c0,0.5-0.2,0.9-0.5,1.3c-0.3,0.4-0.8,0.5-1.5,0.5
	c-0.8,0-1.4-0.3-1.7-0.8c-0.2-0.3-0.3-0.7-0.3-1.1L4.9,11z"/>
<path class="st0" d="M8.6,11.6c0.2-0.4,0.5-0.8,1.1-1.2c0.4-0.2,0.7-0.5,1-0.8C10.9,9.4,11,9.1,11,8.8c0-0.2-0.1-0.4-0.2-0.6
	C10.7,8,10.5,8,10.3,8C9.9,8,9.7,8.1,9.6,8.4C9.5,8.6,9.4,8.8,9.5,9.1H8.4c0-0.4,0.1-0.8,0.3-1.2C8.9,7.3,9.5,7,10.2,7
	c0.6,0,1.1,0.2,1.4,0.5c0.4,0.3,0.6,0.8,0.5,1.3c0,0.4-0.1,0.8-0.4,1.1c-0.2,0.3-0.5,0.5-0.8,0.7L10.6,11c-0.3,0.2-0.5,0.3-0.6,0.4
	c-0.1,0.1-0.2,0.2-0.3,0.3h2.5v1H8.3C8.3,12.4,8.4,12,8.6,11.6z"/>
</svg>
